<mxfile host="app.diagrams.net" modified="2024-02-27T12:33:31.024Z" agent="Mozilla/5.0 (Windows NT 10.0; Win64; x64) AppleWebKit/537.36 (KHTML, like Gecko) Chrome/121.0.0.0 Safari/537.36" version="23.1.7" etag="PjGiFfN5XZu1uPW2PLHg" type="github">
  <diagram name="PÃ¡gina-1" id="08oG3Br5SEVjNGIZ4pGW">
    <mxGraphModel>
      <root>
        <mxCell id="0" />
        <mxCell id="1" parent="0" />
      </root>
    </mxGraphModel>
  </diagram>
</mxfile>
